<?xml version="1.0" encoding="UTF-8" standalone="no"?>
<!DOCTYPE svg PUBLIC "-//W3C//DTD SVG 1.1//EN"
 "http://www.w3.org/Graphics/SVG/1.1/DTD/svg11.dtd">
<!-- Generated by graphviz version 3.0.0 (20220226.1711)
 -->
<!-- Title: dependencies Pages: 1 -->
<svg width="7959pt" height="247pt"
 viewBox="0.00 0.00 7959.00 246.80" xmlns="http://www.w3.org/2000/svg" xmlns:xlink="http://www.w3.org/1999/xlink">
<g id="graph0" class="graph" transform="scale(1 1) rotate(0) translate(4 242.8)">
<title>dependencies</title>
<polygon fill="white" stroke="transparent" points="-4,4 -4,-242.8 7955,-242.8 7955,4 -4,4"/>
<text text-anchor="middle" x="3975.5" y="-8.2" font-family="sans-serif" font-size="14.00">dependencies</text>
<g id="clust1" class="cluster">
<title>cluster_AppModule</title>
<polygon fill="none" stroke="black" stroke-dasharray="1,5" points="8,-32.8 8,-230.8 7943,-230.8 7943,-32.8 8,-32.8"/>
</g>
<g id="clust51" class="cluster">
<title>cluster_AppModule_providers</title>
<polygon fill="none" stroke="black" points="7565,-40.8 7565,-92.8 7935,-92.8 7935,-40.8 7565,-40.8"/>
</g>
<g id="clust48" class="cluster">
<title>cluster_AppModule_imports</title>
<polygon fill="none" stroke="black" points="7413,-40.8 7413,-92.8 7557,-92.8 7557,-40.8 7413,-40.8"/>
</g>
<g id="clust50" class="cluster">
<title>cluster_AppModule_bootstrap</title>
<polygon fill="none" stroke="black" points="4016,-170.8 4016,-222.8 4140,-222.8 4140,-170.8 4016,-170.8"/>
</g>
<g id="clust2" class="cluster">
<title>cluster_AppModule_declarations</title>
<polygon fill="none" stroke="black" points="16,-40.8 16,-92.8 7405,-92.8 7405,-40.8 16,-40.8"/>
</g>
<!-- AdmProfileComponent -->
<g id="node1" class="node">
<title>AdmProfileComponent</title>
<polygon fill="#ffffb3" stroke="black" points="7396.94,-84.8 7249.06,-84.8 7249.06,-48.8 7396.94,-48.8 7396.94,-84.8"/>
<text text-anchor="middle" x="7323" y="-62.6" font-family="Times,serif" font-size="14.00">AdmProfileComponent</text>
</g>
<!-- AppModule -->
<g id="node46" class="node">
<title>AppModule</title>
<polygon fill="#8dd3c7" stroke="black" points="4119.66,-149.8 4116.66,-153.8 4095.66,-153.8 4092.66,-149.8 4036.34,-149.8 4036.34,-113.8 4119.66,-113.8 4119.66,-149.8"/>
<text text-anchor="middle" x="4078" y="-127.6" font-family="Times,serif" font-size="14.00">AppModule</text>
</g>
<!-- AdmProfileComponent&#45;&gt;AppModule -->
<g id="edge1" class="edge">
<title>AdmProfileComponent&#45;&gt;AppModule</title>
<path fill="none" stroke="black" d="M7323,-85.05C7323,-107.82 7323,-143.8 7323,-143.8 7323,-143.8 4129.92,-143.8 4129.92,-143.8"/>
<polygon fill="black" stroke="black" points="4129.92,-140.3 4119.92,-143.8 4129.92,-147.3 4129.92,-140.3"/>
</g>
<!-- AppComponent -->
<g id="node2" class="node">
<title>AppComponent</title>
<polygon fill="#ffffb3" stroke="black" points="7231.94,-84.8 7126.06,-84.8 7126.06,-48.8 7231.94,-48.8 7231.94,-84.8"/>
<text text-anchor="middle" x="7179" y="-62.6" font-family="Times,serif" font-size="14.00">AppComponent</text>
</g>
<!-- AppComponent&#45;&gt;AppModule -->
<g id="edge2" class="edge">
<title>AppComponent&#45;&gt;AppModule</title>
<path fill="none" stroke="black" d="M7179,-84.81C7179,-107.29 7179,-142.8 7179,-142.8 7179,-142.8 4129.78,-142.8 4129.78,-142.8"/>
<polygon fill="black" stroke="black" points="4129.78,-139.3 4119.78,-142.8 4129.78,-146.3 4129.78,-139.3"/>
</g>
<!-- BackToTopComponent -->
<g id="node3" class="node">
<title>BackToTopComponent</title>
<polygon fill="#ffffb3" stroke="black" points="7108.2,-84.8 6959.8,-84.8 6959.8,-48.8 7108.2,-48.8 7108.2,-84.8"/>
<text text-anchor="middle" x="7034" y="-62.6" font-family="Times,serif" font-size="14.00">BackToTopComponent</text>
</g>
<!-- BackToTopComponent&#45;&gt;AppModule -->
<g id="edge3" class="edge">
<title>BackToTopComponent&#45;&gt;AppModule</title>
<path fill="none" stroke="black" d="M7034,-85.09C7034,-107.01 7034,-140.8 7034,-140.8 7034,-140.8 4129.79,-140.8 4129.79,-140.8"/>
<polygon fill="black" stroke="black" points="4129.79,-137.3 4119.79,-140.8 4129.79,-144.3 4129.79,-137.3"/>
</g>
<!-- BooleanPipePipe -->
<g id="node4" class="node">
<title>BooleanPipePipe</title>
<polygon fill="#ffffb3" stroke="black" points="6942.44,-84.8 6829.56,-84.8 6829.56,-48.8 6942.44,-48.8 6942.44,-84.8"/>
<text text-anchor="middle" x="6886" y="-62.6" font-family="Times,serif" font-size="14.00">BooleanPipePipe</text>
</g>
<!-- BooleanPipePipe&#45;&gt;AppModule -->
<g id="edge4" class="edge">
<title>BooleanPipePipe&#45;&gt;AppModule</title>
<path fill="none" stroke="black" d="M6886,-84.84C6886,-106.46 6886,-139.8 6886,-139.8 6886,-139.8 4129.87,-139.8 4129.87,-139.8"/>
<polygon fill="black" stroke="black" points="4129.87,-136.3 4119.87,-139.8 4129.87,-143.3 4129.87,-136.3"/>
</g>
<!-- CartEmptyComponent -->
<g id="node5" class="node">
<title>CartEmptyComponent</title>
<polygon fill="#ffffb3" stroke="black" points="6811.27,-84.8 6668.73,-84.8 6668.73,-48.8 6811.27,-48.8 6811.27,-84.8"/>
<text text-anchor="middle" x="6740" y="-62.6" font-family="Times,serif" font-size="14.00">CartEmptyComponent</text>
</g>
<!-- CartEmptyComponent&#45;&gt;AppModule -->
<g id="edge5" class="edge">
<title>CartEmptyComponent&#45;&gt;AppModule</title>
<path fill="none" stroke="black" d="M6740,-85.08C6740,-106.12 6740,-137.8 6740,-137.8 6740,-137.8 4129.81,-137.8 4129.81,-137.8"/>
<polygon fill="black" stroke="black" points="4129.81,-134.3 4119.81,-137.8 4129.81,-141.3 4129.81,-134.3"/>
</g>
<!-- CartItemComponent -->
<g id="node6" class="node">
<title>CartItemComponent</title>
<polygon fill="#ffffb3" stroke="black" points="6650.59,-84.8 6519.41,-84.8 6519.41,-48.8 6650.59,-48.8 6650.59,-84.8"/>
<text text-anchor="middle" x="6585" y="-62.6" font-family="Times,serif" font-size="14.00">CartItemComponent</text>
</g>
<!-- CartItemComponent&#45;&gt;AppModule -->
<g id="edge6" class="edge">
<title>CartItemComponent&#45;&gt;AppModule</title>
<path fill="none" stroke="black" d="M6585,-84.83C6585,-105.57 6585,-136.8 6585,-136.8 6585,-136.8 4129.68,-136.8 4129.68,-136.8"/>
<polygon fill="black" stroke="black" points="4129.68,-133.3 4119.68,-136.8 4129.68,-140.3 4129.68,-133.3"/>
</g>
<!-- CategoryComponent -->
<g id="node7" class="node">
<title>CategoryComponent</title>
<polygon fill="#ffffb3" stroke="black" points="6501.15,-84.8 6368.85,-84.8 6368.85,-48.8 6501.15,-48.8 6501.15,-84.8"/>
<text text-anchor="middle" x="6435" y="-62.6" font-family="Times,serif" font-size="14.00">CategoryComponent</text>
</g>
<!-- CategoryComponent&#45;&gt;AppModule -->
<g id="edge7" class="edge">
<title>CategoryComponent&#45;&gt;AppModule</title>
<path fill="none" stroke="black" d="M6435,-85.02C6435,-105.17 6435,-134.8 6435,-134.8 6435,-134.8 4129.91,-134.8 4129.91,-134.8"/>
<polygon fill="black" stroke="black" points="4129.91,-131.3 4119.91,-134.8 4129.91,-138.3 4129.91,-131.3"/>
</g>
<!-- CategoryCrudComponent -->
<g id="node8" class="node">
<title>CategoryCrudComponent</title>
<polygon fill="#ffffb3" stroke="black" points="6350.15,-84.8 6189.85,-84.8 6189.85,-48.8 6350.15,-48.8 6350.15,-84.8"/>
<text text-anchor="middle" x="6270" y="-62.6" font-family="Times,serif" font-size="14.00">CategoryCrudComponent</text>
</g>
<!-- CategoryCrudComponent&#45;&gt;AppModule -->
<g id="edge8" class="edge">
<title>CategoryCrudComponent&#45;&gt;AppModule</title>
<path fill="none" stroke="black" d="M6270,-85.11C6270,-104.95 6270,-133.8 6270,-133.8 6270,-133.8 4129.83,-133.8 4129.83,-133.8"/>
<polygon fill="black" stroke="black" points="4129.83,-130.3 4119.83,-133.8 4129.83,-137.3 4129.83,-130.3"/>
</g>
<!-- CategoryReadComponent -->
<g id="node9" class="node">
<title>CategoryReadComponent</title>
<polygon fill="#ffffb3" stroke="black" points="6171.91,-84.8 6010.09,-84.8 6010.09,-48.8 6171.91,-48.8 6171.91,-84.8"/>
<text text-anchor="middle" x="6091" y="-62.6" font-family="Times,serif" font-size="14.00">CategoryReadComponent</text>
</g>
<!-- CategoryReadComponent&#45;&gt;AppModule -->
<g id="edge9" class="edge">
<title>CategoryReadComponent&#45;&gt;AppModule</title>
<path fill="none" stroke="black" d="M6091,-84.91C6091,-104.14 6091,-131.8 6091,-131.8 6091,-131.8 4130.04,-131.8 4130.04,-131.8"/>
<polygon fill="black" stroke="black" points="4130.04,-128.3 4120.04,-131.8 4130.04,-135.3 4130.04,-128.3"/>
</g>
<!-- CategoryUpdateComponent -->
<g id="node10" class="node">
<title>CategoryUpdateComponent</title>
<polygon fill="#ffffb3" stroke="black" points="5992.58,-84.8 5819.42,-84.8 5819.42,-48.8 5992.58,-48.8 5992.58,-84.8"/>
<text text-anchor="middle" x="5906" y="-62.6" font-family="Times,serif" font-size="14.00">CategoryUpdateComponent</text>
</g>
<!-- CategoryUpdateComponent&#45;&gt;AppModule -->
<g id="edge10" class="edge">
<title>CategoryUpdateComponent&#45;&gt;AppModule</title>
<path fill="none" stroke="black" d="M5906,-84.97C5906,-103.89 5906,-130.8 5906,-130.8 5906,-130.8 4130.05,-130.8 4130.05,-130.8"/>
<polygon fill="black" stroke="black" points="4130.05,-127.3 4120.05,-130.8 4130.05,-134.3 4130.05,-127.3"/>
</g>
<!-- CheckoutProcessComponent -->
<g id="node11" class="node">
<title>CheckoutProcessComponent</title>
<polygon fill="#ffffb3" stroke="black" points="5801.76,-84.8 5624.24,-84.8 5624.24,-48.8 5801.76,-48.8 5801.76,-84.8"/>
<text text-anchor="middle" x="5713" y="-62.6" font-family="Times,serif" font-size="14.00">CheckoutProcessComponent</text>
</g>
<!-- CheckoutProcessComponent&#45;&gt;AppModule -->
<g id="edge11" class="edge">
<title>CheckoutProcessComponent&#45;&gt;AppModule</title>
<path fill="none" stroke="black" d="M5713,-85.07C5713,-103.36 5713,-128.8 5713,-128.8 5713,-128.8 4130.06,-128.8 4130.06,-128.8"/>
<polygon fill="black" stroke="black" points="4130.06,-125.3 4120.06,-128.8 4130.06,-132.3 4130.06,-125.3"/>
</g>
<!-- ComponentCategoriasComponent -->
<g id="node12" class="node">
<title>ComponentCategoriasComponent</title>
<polygon fill="#ffffb3" stroke="black" points="5606.03,-84.8 5399.97,-84.8 5399.97,-48.8 5606.03,-48.8 5606.03,-84.8"/>
<text text-anchor="middle" x="5503" y="-62.6" font-family="Times,serif" font-size="14.00">ComponentCategoriasComponent</text>
</g>
<!-- ComponentCategoriasComponent&#45;&gt;AppModule -->
<g id="edge12" class="edge">
<title>ComponentCategoriasComponent&#45;&gt;AppModule</title>
<path fill="none" stroke="black" d="M5503,-85.1C5503,-103.07 5503,-127.8 5503,-127.8 5503,-127.8 4129.88,-127.8 4129.88,-127.8"/>
<polygon fill="black" stroke="black" points="4129.88,-124.3 4119.88,-127.8 4129.88,-131.3 4129.88,-124.3"/>
</g>
<!-- FooterComponent -->
<g id="node13" class="node">
<title>FooterComponent</title>
<polygon fill="#ffffb3" stroke="black" points="5381.88,-84.8 5264.12,-84.8 5264.12,-48.8 5381.88,-48.8 5381.88,-84.8"/>
<text text-anchor="middle" x="5323" y="-62.6" font-family="Times,serif" font-size="14.00">FooterComponent</text>
</g>
<!-- FooterComponent&#45;&gt;AppModule -->
<g id="edge13" class="edge">
<title>FooterComponent&#45;&gt;AppModule</title>
<path fill="none" stroke="black" d="M5323,-84.82C5323,-102.17 5323,-125.8 5323,-125.8 5323,-125.8 4129.78,-125.8 4129.78,-125.8"/>
<polygon fill="black" stroke="black" points="4129.78,-122.3 4119.78,-125.8 4129.78,-129.3 4129.78,-122.3"/>
</g>
<!-- HeaderComponent -->
<g id="node14" class="node">
<title>HeaderComponent</title>
<polygon fill="#ffffb3" stroke="black" points="5245.75,-84.8 5124.25,-84.8 5124.25,-48.8 5245.75,-48.8 5245.75,-84.8"/>
<text text-anchor="middle" x="5185" y="-62.6" font-family="Times,serif" font-size="14.00">HeaderComponent</text>
</g>
<!-- HeaderComponent&#45;&gt;AppModule -->
<g id="edge14" class="edge">
<title>HeaderComponent&#45;&gt;AppModule</title>
<path fill="none" stroke="black" d="M5185,-84.83C5185,-101.86 5185,-124.8 5185,-124.8 5185,-124.8 4129.71,-124.8 4129.71,-124.8"/>
<polygon fill="black" stroke="black" points="4129.71,-121.3 4119.71,-124.8 4129.71,-128.3 4129.71,-121.3"/>
</g>
<!-- HeroComponent -->
<g id="node15" class="node">
<title>HeroComponent</title>
<polygon fill="#ffffb3" stroke="black" points="5105.82,-84.8 4996.18,-84.8 4996.18,-48.8 5105.82,-48.8 5105.82,-84.8"/>
<text text-anchor="middle" x="5051" y="-62.6" font-family="Times,serif" font-size="14.00">HeroComponent</text>
</g>
<!-- HeroComponent&#45;&gt;AppModule -->
<g id="edge15" class="edge">
<title>HeroComponent&#45;&gt;AppModule</title>
<path fill="none" stroke="black" d="M5051,-84.83C5051,-101.2 5051,-122.8 5051,-122.8 5051,-122.8 4129.81,-122.8 4129.81,-122.8"/>
<polygon fill="black" stroke="black" points="4129.81,-119.3 4119.81,-122.8 4129.81,-126.3 4129.81,-119.3"/>
</g>
<!-- HomeComponent -->
<g id="node16" class="node">
<title>HomeComponent</title>
<polygon fill="#ffffb3" stroke="black" points="4978.55,-84.8 4863.45,-84.8 4863.45,-48.8 4978.55,-48.8 4978.55,-84.8"/>
<text text-anchor="middle" x="4921" y="-62.6" font-family="Times,serif" font-size="14.00">HomeComponent</text>
</g>
<!-- HomeComponent&#45;&gt;AppModule -->
<g id="edge16" class="edge">
<title>HomeComponent&#45;&gt;AppModule</title>
<path fill="none" stroke="black" d="M4921,-84.81C4921,-100.85 4921,-121.8 4921,-121.8 4921,-121.8 4129.8,-121.8 4129.8,-121.8"/>
<polygon fill="black" stroke="black" points="4129.8,-118.3 4119.8,-121.8 4129.8,-125.3 4129.8,-118.3"/>
</g>
<!-- LoginComponent -->
<g id="node17" class="node">
<title>LoginComponent</title>
<polygon fill="#ffffb3" stroke="black" points="4845.27,-84.8 4730.73,-84.8 4730.73,-48.8 4845.27,-48.8 4845.27,-84.8"/>
<text text-anchor="middle" x="4788" y="-62.6" font-family="Times,serif" font-size="14.00">LoginComponent</text>
</g>
<!-- LoginComponent&#45;&gt;AppModule -->
<g id="edge17" class="edge">
<title>LoginComponent&#45;&gt;AppModule</title>
<path fill="none" stroke="black" d="M4788,-85.04C4788,-100.37 4788,-119.8 4788,-119.8 4788,-119.8 4129.76,-119.8 4129.76,-119.8"/>
<polygon fill="black" stroke="black" points="4129.76,-116.3 4119.76,-119.8 4129.76,-123.3 4129.76,-116.3"/>
</g>
<!-- LoginFormComponent -->
<g id="node18" class="node">
<title>LoginFormComponent</title>
<polygon fill="#ffffb3" stroke="black" points="4712.61,-84.8 4567.39,-84.8 4567.39,-48.8 4712.61,-48.8 4712.61,-84.8"/>
<text text-anchor="middle" x="4640" y="-62.6" font-family="Times,serif" font-size="14.00">LoginFormComponent</text>
</g>
<!-- LoginFormComponent&#45;&gt;AppModule -->
<g id="edge18" class="edge">
<title>LoginFormComponent&#45;&gt;AppModule</title>
<path fill="none" stroke="black" d="M4640,-84.99C4640,-99.98 4640,-118.8 4640,-118.8 4640,-118.8 4129.78,-118.8 4129.78,-118.8"/>
<polygon fill="black" stroke="black" points="4129.78,-115.3 4119.78,-118.8 4129.78,-122.3 4129.78,-115.3"/>
</g>
<!-- MenuComponent -->
<g id="node19" class="node">
<title>MenuComponent</title>
<polygon fill="#ffffb3" stroke="black" points="4548.99,-84.8 4435.01,-84.8 4435.01,-48.8 4548.99,-48.8 4548.99,-84.8"/>
<text text-anchor="middle" x="4492" y="-62.6" font-family="Times,serif" font-size="14.00">MenuComponent</text>
</g>
<!-- MenuComponent&#45;&gt;AppModule -->
<g id="edge19" class="edge">
<title>MenuComponent&#45;&gt;AppModule</title>
<path fill="none" stroke="black" d="M4492,-84.85C4492,-99.17 4492,-116.8 4492,-116.8 4492,-116.8 4129.97,-116.8 4129.97,-116.8"/>
<polygon fill="black" stroke="black" points="4129.97,-113.3 4119.97,-116.8 4129.97,-120.3 4129.97,-113.3"/>
</g>
<!-- ModalSearchComponent -->
<g id="node20" class="node">
<title>ModalSearchComponent</title>
<polygon fill="#ffffb3" stroke="black" points="4416.97,-84.8 4261.03,-84.8 4261.03,-48.8 4416.97,-48.8 4416.97,-84.8"/>
<text text-anchor="middle" x="4339" y="-62.6" font-family="Times,serif" font-size="14.00">ModalSearchComponent</text>
</g>
<!-- ModalSearchComponent&#45;&gt;AppModule -->
<g id="edge20" class="edge">
<title>ModalSearchComponent&#45;&gt;AppModule</title>
<path fill="none" stroke="black" d="M4339,-85.05C4339,-98.98 4339,-115.8 4339,-115.8 4339,-115.8 4129.93,-115.8 4129.93,-115.8"/>
<polygon fill="black" stroke="black" points="4129.93,-112.3 4119.93,-115.8 4129.93,-119.3 4129.93,-112.3"/>
</g>
<!-- NossaHistoriaComponent -->
<g id="node21" class="node">
<title>NossaHistoriaComponent</title>
<polygon fill="#ffffb3" stroke="black" points="4243.16,-84.8 4082.84,-84.8 4082.84,-48.8 4243.16,-48.8 4243.16,-84.8"/>
<text text-anchor="middle" x="4163" y="-62.6" font-family="Times,serif" font-size="14.00">NossaHistoriaComponent</text>
</g>
<!-- NossaHistoriaComponent&#45;&gt;AppModule -->
<g id="edge21" class="edge">
<title>NossaHistoriaComponent&#45;&gt;AppModule</title>
<path fill="none" stroke="black" d="M4101.25,-84.91C4101.25,-84.91 4101.25,-103.79 4101.25,-103.79"/>
<polygon fill="black" stroke="black" points="4097.75,-103.79 4101.25,-113.79 4104.75,-103.79 4097.75,-103.79"/>
</g>
<!-- OrderCardComponent -->
<g id="node22" class="node">
<title>OrderCardComponent</title>
<polygon fill="#ffffb3" stroke="black" points="4064.69,-84.8 3923.31,-84.8 3923.31,-48.8 4064.69,-48.8 4064.69,-84.8"/>
<text text-anchor="middle" x="3994" y="-62.6" font-family="Times,serif" font-size="14.00">OrderCardComponent</text>
</g>
<!-- OrderCardComponent&#45;&gt;AppModule -->
<g id="edge22" class="edge">
<title>OrderCardComponent&#45;&gt;AppModule</title>
<path fill="none" stroke="black" d="M4050.38,-84.91C4050.38,-84.91 4050.38,-103.79 4050.38,-103.79"/>
<polygon fill="black" stroke="black" points="4046.88,-103.79 4050.38,-113.79 4053.88,-103.79 4046.88,-103.79"/>
</g>
<!-- OrdersComponent -->
<g id="node23" class="node">
<title>OrdersComponent</title>
<polygon fill="#ffffb3" stroke="black" points="3905.93,-84.8 3786.07,-84.8 3786.07,-48.8 3905.93,-48.8 3905.93,-84.8"/>
<text text-anchor="middle" x="3846" y="-62.6" font-family="Times,serif" font-size="14.00">OrdersComponent</text>
</g>
<!-- OrdersComponent&#45;&gt;AppModule -->
<g id="edge23" class="edge">
<title>OrdersComponent&#45;&gt;AppModule</title>
<path fill="none" stroke="black" d="M3846,-85.05C3846,-98.98 3846,-115.8 3846,-115.8 3846,-115.8 4026.26,-115.8 4026.26,-115.8"/>
<polygon fill="black" stroke="black" points="4026.26,-119.3 4036.26,-115.8 4026.26,-112.3 4026.26,-119.3"/>
</g>
<!-- PhonePipe -->
<g id="node24" class="node">
<title>PhonePipe</title>
<polygon fill="#ffffb3" stroke="black" points="3767.89,-84.8 3692.11,-84.8 3692.11,-48.8 3767.89,-48.8 3767.89,-84.8"/>
<text text-anchor="middle" x="3730" y="-62.6" font-family="Times,serif" font-size="14.00">PhonePipe</text>
</g>
<!-- PhonePipe&#45;&gt;AppModule -->
<g id="edge24" class="edge">
<title>PhonePipe&#45;&gt;AppModule</title>
<path fill="none" stroke="black" d="M3730,-84.85C3730,-99.17 3730,-116.8 3730,-116.8 3730,-116.8 4026.02,-116.8 4026.02,-116.8"/>
<polygon fill="black" stroke="black" points="4026.02,-120.3 4036.02,-116.8 4026.02,-113.3 4026.02,-120.3"/>
</g>
<!-- ProductCardComponent -->
<g id="node25" class="node">
<title>ProductCardComponent</title>
<polygon fill="#ffffb3" stroke="black" points="3674.1,-84.8 3521.9,-84.8 3521.9,-48.8 3674.1,-48.8 3674.1,-84.8"/>
<text text-anchor="middle" x="3598" y="-62.6" font-family="Times,serif" font-size="14.00">ProductCardComponent</text>
</g>
<!-- ProductCardComponent&#45;&gt;AppModule -->
<g id="edge25" class="edge">
<title>ProductCardComponent&#45;&gt;AppModule</title>
<path fill="none" stroke="black" d="M3598,-84.99C3598,-99.98 3598,-118.8 3598,-118.8 3598,-118.8 4026.24,-118.8 4026.24,-118.8"/>
<polygon fill="black" stroke="black" points="4026.24,-122.3 4036.24,-118.8 4026.24,-115.3 4026.24,-122.3"/>
</g>
<!-- ProductComponent -->
<g id="node26" class="node">
<title>ProductComponent</title>
<polygon fill="#ffffb3" stroke="black" points="3504.38,-84.8 3379.62,-84.8 3379.62,-48.8 3504.38,-48.8 3504.38,-84.8"/>
<text text-anchor="middle" x="3442" y="-62.6" font-family="Times,serif" font-size="14.00">ProductComponent</text>
</g>
<!-- ProductComponent&#45;&gt;AppModule -->
<g id="edge26" class="edge">
<title>ProductComponent&#45;&gt;AppModule</title>
<path fill="none" stroke="black" d="M3442,-85.04C3442,-100.37 3442,-119.8 3442,-119.8 3442,-119.8 4026.27,-119.8 4026.27,-119.8"/>
<polygon fill="black" stroke="black" points="4026.27,-123.3 4036.27,-119.8 4026.27,-116.3 4026.27,-123.3"/>
</g>
<!-- ProductCreateComponent -->
<g id="node27" class="node">
<title>ProductCreateComponent</title>
<polygon fill="#ffffb3" stroke="black" points="3361.91,-84.8 3200.09,-84.8 3200.09,-48.8 3361.91,-48.8 3361.91,-84.8"/>
<text text-anchor="middle" x="3281" y="-62.6" font-family="Times,serif" font-size="14.00">ProductCreateComponent</text>
</g>
<!-- ProductCreateComponent&#45;&gt;AppModule -->
<g id="edge27" class="edge">
<title>ProductCreateComponent&#45;&gt;AppModule</title>
<path fill="none" stroke="black" d="M3281,-84.81C3281,-100.85 3281,-121.8 3281,-121.8 3281,-121.8 4026.27,-121.8 4026.27,-121.8"/>
<polygon fill="black" stroke="black" points="4026.27,-125.3 4036.27,-121.8 4026.27,-118.3 4026.27,-125.3"/>
</g>
<!-- ProductCrudComponent -->
<g id="node28" class="node">
<title>ProductCrudComponent</title>
<polygon fill="#ffffb3" stroke="black" points="3182.38,-84.8 3029.62,-84.8 3029.62,-48.8 3182.38,-48.8 3182.38,-84.8"/>
<text text-anchor="middle" x="3106" y="-62.6" font-family="Times,serif" font-size="14.00">ProductCrudComponent</text>
</g>
<!-- ProductCrudComponent&#45;&gt;AppModule -->
<g id="edge28" class="edge">
<title>ProductCrudComponent&#45;&gt;AppModule</title>
<path fill="none" stroke="black" d="M3106,-84.83C3106,-101.2 3106,-122.8 3106,-122.8 3106,-122.8 4026.23,-122.8 4026.23,-122.8"/>
<polygon fill="black" stroke="black" points="4026.23,-126.3 4036.23,-122.8 4026.23,-119.3 4026.23,-126.3"/>
</g>
<!-- ProductGroupComponent -->
<g id="node29" class="node">
<title>ProductGroupComponent</title>
<polygon fill="#ffffb3" stroke="black" points="3011.16,-84.8 2850.84,-84.8 2850.84,-48.8 3011.16,-48.8 3011.16,-84.8"/>
<text text-anchor="middle" x="2931" y="-62.6" font-family="Times,serif" font-size="14.00">ProductGroupComponent</text>
</g>
<!-- ProductGroupComponent&#45;&gt;AppModule -->
<g id="edge29" class="edge">
<title>ProductGroupComponent&#45;&gt;AppModule</title>
<path fill="none" stroke="black" d="M2931,-84.83C2931,-101.86 2931,-124.8 2931,-124.8 2931,-124.8 4026.16,-124.8 4026.16,-124.8"/>
<polygon fill="black" stroke="black" points="4026.16,-128.3 4036.16,-124.8 4026.16,-121.3 4026.16,-128.3"/>
</g>
<!-- ProductReadComponent -->
<g id="node30" class="node">
<title>ProductReadComponent</title>
<polygon fill="#ffffb3" stroke="black" points="2832.65,-84.8 2679.35,-84.8 2679.35,-48.8 2832.65,-48.8 2832.65,-84.8"/>
<text text-anchor="middle" x="2756" y="-62.6" font-family="Times,serif" font-size="14.00">ProductReadComponent</text>
</g>
<!-- ProductReadComponent&#45;&gt;AppModule -->
<g id="edge30" class="edge">
<title>ProductReadComponent&#45;&gt;AppModule</title>
<path fill="none" stroke="black" d="M2756,-84.82C2756,-102.17 2756,-125.8 2756,-125.8 2756,-125.8 4026.25,-125.8 4026.25,-125.8"/>
<polygon fill="black" stroke="black" points="4026.25,-129.3 4036.25,-125.8 4026.25,-122.3 4026.25,-129.3"/>
</g>
<!-- ProductUpdateComponent -->
<g id="node31" class="node">
<title>ProductUpdateComponent</title>
<polygon fill="#ffffb3" stroke="black" points="2661.81,-84.8 2496.19,-84.8 2496.19,-48.8 2661.81,-48.8 2661.81,-84.8"/>
<text text-anchor="middle" x="2579" y="-62.6" font-family="Times,serif" font-size="14.00">ProductUpdateComponent</text>
</g>
<!-- ProductUpdateComponent&#45;&gt;AppModule -->
<g id="edge31" class="edge">
<title>ProductUpdateComponent&#45;&gt;AppModule</title>
<path fill="none" stroke="black" d="M2579,-85.1C2579,-103.07 2579,-127.8 2579,-127.8 2579,-127.8 4025.95,-127.8 4025.95,-127.8"/>
<polygon fill="black" stroke="black" points="4025.95,-131.3 4035.95,-127.8 4025.95,-124.3 4025.95,-131.3"/>
</g>
<!-- ProfileAdmTabsComponent -->
<g id="node32" class="node">
<title>ProfileAdmTabsComponent</title>
<polygon fill="#ffffb3" stroke="black" points="2478.15,-84.8 2303.85,-84.8 2303.85,-48.8 2478.15,-48.8 2478.15,-84.8"/>
<text text-anchor="middle" x="2391" y="-62.6" font-family="Times,serif" font-size="14.00">ProfileAdmTabsComponent</text>
</g>
<!-- ProfileAdmTabsComponent&#45;&gt;AppModule -->
<g id="edge32" class="edge">
<title>ProfileAdmTabsComponent&#45;&gt;AppModule</title>
<path fill="none" stroke="black" d="M2391,-85.07C2391,-103.36 2391,-128.8 2391,-128.8 2391,-128.8 4026.3,-128.8 4026.3,-128.8"/>
<polygon fill="black" stroke="black" points="4026.3,-132.3 4036.3,-128.8 4026.3,-125.3 4026.3,-132.3"/>
</g>
<!-- ProfileTabsComponent -->
<g id="node33" class="node">
<title>ProfileTabsComponent</title>
<polygon fill="#ffffb3" stroke="black" points="2285.15,-84.8 2138.85,-84.8 2138.85,-48.8 2285.15,-48.8 2285.15,-84.8"/>
<text text-anchor="middle" x="2212" y="-62.6" font-family="Times,serif" font-size="14.00">ProfileTabsComponent</text>
</g>
<!-- ProfileTabsComponent&#45;&gt;AppModule -->
<g id="edge33" class="edge">
<title>ProfileTabsComponent&#45;&gt;AppModule</title>
<path fill="none" stroke="black" d="M2212,-84.97C2212,-103.89 2212,-130.8 2212,-130.8 2212,-130.8 4025.97,-130.8 4025.97,-130.8"/>
<polygon fill="black" stroke="black" points="4025.97,-134.3 4035.97,-130.8 4025.97,-127.3 4025.97,-134.3"/>
</g>
<!-- PurchaseHistoryComponent -->
<g id="node34" class="node">
<title>PurchaseHistoryComponent</title>
<polygon fill="#ffffb3" stroke="black" points="2120.87,-84.8 1947.13,-84.8 1947.13,-48.8 2120.87,-48.8 2120.87,-84.8"/>
<text text-anchor="middle" x="2034" y="-62.6" font-family="Times,serif" font-size="14.00">PurchaseHistoryComponent</text>
</g>
<!-- PurchaseHistoryComponent&#45;&gt;AppModule -->
<g id="edge34" class="edge">
<title>PurchaseHistoryComponent&#45;&gt;AppModule</title>
<path fill="none" stroke="black" d="M2034,-84.91C2034,-104.14 2034,-131.8 2034,-131.8 2034,-131.8 4026.24,-131.8 4026.24,-131.8"/>
<polygon fill="black" stroke="black" points="4026.24,-135.3 4036.24,-131.8 4026.24,-128.3 4026.24,-135.3"/>
</g>
<!-- QuantityInputComponent -->
<g id="node35" class="node">
<title>QuantityInputComponent</title>
<polygon fill="#ffffb3" stroke="black" points="1928.88,-84.8 1769.12,-84.8 1769.12,-48.8 1928.88,-48.8 1928.88,-84.8"/>
<text text-anchor="middle" x="1849" y="-62.6" font-family="Times,serif" font-size="14.00">QuantityInputComponent</text>
</g>
<!-- QuantityInputComponent&#45;&gt;AppModule -->
<g id="edge35" class="edge">
<title>QuantityInputComponent&#45;&gt;AppModule</title>
<path fill="none" stroke="black" d="M1849,-85.11C1849,-104.95 1849,-133.8 1849,-133.8 1849,-133.8 4025.95,-133.8 4025.95,-133.8"/>
<polygon fill="black" stroke="black" points="4025.95,-137.3 4035.95,-133.8 4025.95,-130.3 4025.95,-137.3"/>
</g>
<!-- SearchComponent -->
<g id="node36" class="node">
<title>SearchComponent</title>
<polygon fill="#ffffb3" stroke="black" points="1750.92,-84.8 1631.08,-84.8 1631.08,-48.8 1750.92,-48.8 1750.92,-84.8"/>
<text text-anchor="middle" x="1691" y="-62.6" font-family="Times,serif" font-size="14.00">SearchComponent</text>
</g>
<!-- SearchComponent&#45;&gt;AppModule -->
<g id="edge36" class="edge">
<title>SearchComponent&#45;&gt;AppModule</title>
<path fill="none" stroke="black" d="M1691,-85.02C1691,-105.17 1691,-134.8 1691,-134.8 1691,-134.8 4026.32,-134.8 4026.32,-134.8"/>
<polygon fill="black" stroke="black" points="4026.32,-138.3 4036.32,-134.8 4026.32,-131.3 4026.32,-138.3"/>
</g>
<!-- SearchPipe -->
<g id="node37" class="node">
<title>SearchPipe</title>
<polygon fill="#ffffb3" stroke="black" points="1613.48,-84.8 1534.52,-84.8 1534.52,-48.8 1613.48,-48.8 1613.48,-84.8"/>
<text text-anchor="middle" x="1574" y="-62.6" font-family="Times,serif" font-size="14.00">SearchPipe</text>
</g>
<!-- SearchPipe&#45;&gt;AppModule -->
<g id="edge37" class="edge">
<title>SearchPipe&#45;&gt;AppModule</title>
<path fill="none" stroke="black" d="M1574,-84.83C1574,-105.57 1574,-136.8 1574,-136.8 1574,-136.8 4026.11,-136.8 4026.11,-136.8"/>
<polygon fill="black" stroke="black" points="4026.11,-140.3 4036.11,-136.8 4026.11,-133.3 4026.11,-140.3"/>
</g>
<!-- ShoppingCartComponent -->
<g id="node38" class="node">
<title>ShoppingCartComponent</title>
<polygon fill="#ffffb3" stroke="black" points="1516.61,-84.8 1357.39,-84.8 1357.39,-48.8 1516.61,-48.8 1516.61,-84.8"/>
<text text-anchor="middle" x="1437" y="-62.6" font-family="Times,serif" font-size="14.00">ShoppingCartComponent</text>
</g>
<!-- ShoppingCartComponent&#45;&gt;AppModule -->
<g id="edge38" class="edge">
<title>ShoppingCartComponent&#45;&gt;AppModule</title>
<path fill="none" stroke="black" d="M1437,-85.08C1437,-106.12 1437,-137.8 1437,-137.8 1437,-137.8 4026.25,-137.8 4026.25,-137.8"/>
<polygon fill="black" stroke="black" points="4026.25,-141.3 4036.25,-137.8 4026.25,-134.3 4026.25,-141.3"/>
</g>
<!-- ShoppingCartDetailsComponent -->
<g id="node39" class="node">
<title>ShoppingCartDetailsComponent</title>
<polygon fill="#ffffb3" stroke="black" points="1339.27,-84.8 1140.73,-84.8 1140.73,-48.8 1339.27,-48.8 1339.27,-84.8"/>
<text text-anchor="middle" x="1240" y="-62.6" font-family="Times,serif" font-size="14.00">ShoppingCartDetailsComponent</text>
</g>
<!-- ShoppingCartDetailsComponent&#45;&gt;AppModule -->
<g id="edge39" class="edge">
<title>ShoppingCartDetailsComponent&#45;&gt;AppModule</title>
<path fill="none" stroke="black" d="M1240,-84.84C1240,-106.46 1240,-139.8 1240,-139.8 1240,-139.8 4026.23,-139.8 4026.23,-139.8"/>
<polygon fill="black" stroke="black" points="4026.23,-143.3 4036.23,-139.8 4026.23,-136.3 4026.23,-143.3"/>
</g>
<!-- ShoppingCartSummaryComponent -->
<g id="node40" class="node">
<title>ShoppingCartSummaryComponent</title>
<polygon fill="#ffffb3" stroke="black" points="1122.55,-84.8 909.45,-84.8 909.45,-48.8 1122.55,-48.8 1122.55,-84.8"/>
<text text-anchor="middle" x="1016" y="-62.6" font-family="Times,serif" font-size="14.00">ShoppingCartSummaryComponent</text>
</g>
<!-- ShoppingCartSummaryComponent&#45;&gt;AppModule -->
<g id="edge40" class="edge">
<title>ShoppingCartSummaryComponent&#45;&gt;AppModule</title>
<path fill="none" stroke="black" d="M1016,-85.09C1016,-107.01 1016,-140.8 1016,-140.8 1016,-140.8 4026.17,-140.8 4026.17,-140.8"/>
<polygon fill="black" stroke="black" points="4026.17,-144.3 4036.17,-140.8 4026.17,-137.3 4026.17,-144.3"/>
</g>
<!-- SigninComponent -->
<g id="node41" class="node">
<title>SigninComponent</title>
<polygon fill="#ffffb3" stroke="black" points="890.9,-84.8 773.1,-84.8 773.1,-48.8 890.9,-48.8 890.9,-84.8"/>
<text text-anchor="middle" x="832" y="-62.6" font-family="Times,serif" font-size="14.00">SigninComponent</text>
</g>
<!-- SigninComponent&#45;&gt;AppModule -->
<g id="edge41" class="edge">
<title>SigninComponent&#45;&gt;AppModule</title>
<path fill="none" stroke="black" d="M832,-84.81C832,-107.29 832,-142.8 832,-142.8 832,-142.8 4026.07,-142.8 4026.07,-142.8"/>
<polygon fill="black" stroke="black" points="4026.07,-146.3 4036.07,-142.8 4026.07,-139.3 4026.07,-146.3"/>
</g>
<!-- SigninFormComponent -->
<g id="node42" class="node">
<title>SigninFormComponent</title>
<polygon fill="#ffffb3" stroke="black" points="755.23,-84.8 606.77,-84.8 606.77,-48.8 755.23,-48.8 755.23,-84.8"/>
<text text-anchor="middle" x="681" y="-62.6" font-family="Times,serif" font-size="14.00">SigninFormComponent</text>
</g>
<!-- SigninFormComponent&#45;&gt;AppModule -->
<g id="edge42" class="edge">
<title>SigninFormComponent&#45;&gt;AppModule</title>
<path fill="none" stroke="black" d="M681,-85.05C681,-107.82 681,-143.8 681,-143.8 681,-143.8 4026.27,-143.8 4026.27,-143.8"/>
<polygon fill="black" stroke="black" points="4026.27,-147.3 4036.27,-143.8 4026.27,-140.3 4026.27,-147.3"/>
</g>
<!-- SigninPasswordRulesComponent -->
<g id="node43" class="node">
<title>SigninPasswordRulesComponent</title>
<polygon fill="#ffffb3" stroke="black" points="588.96,-84.8 385.04,-84.8 385.04,-48.8 588.96,-48.8 588.96,-84.8"/>
<text text-anchor="middle" x="487" y="-62.6" font-family="Times,serif" font-size="14.00">SigninPasswordRulesComponent</text>
</g>
<!-- SigninPasswordRulesComponent&#45;&gt;AppModule -->
<g id="edge43" class="edge">
<title>SigninPasswordRulesComponent&#45;&gt;AppModule</title>
<path fill="none" stroke="black" d="M487,-85.12C487,-108.46 487,-145.8 487,-145.8 487,-145.8 4026.12,-145.8 4026.12,-145.8"/>
<polygon fill="black" stroke="black" points="4026.12,-149.3 4036.12,-145.8 4026.12,-142.3 4026.12,-149.3"/>
</g>
<!-- UserPersonalInfoComponent -->
<g id="node44" class="node">
<title>UserPersonalInfoComponent</title>
<polygon fill="#ffffb3" stroke="black" points="367.8,-84.8 188.2,-84.8 188.2,-48.8 367.8,-48.8 367.8,-84.8"/>
<text text-anchor="middle" x="278" y="-62.6" font-family="Times,serif" font-size="14.00">UserPersonalInfoComponent</text>
</g>
<!-- UserPersonalInfoComponent&#45;&gt;AppModule -->
<g id="edge44" class="edge">
<title>UserPersonalInfoComponent&#45;&gt;AppModule</title>
<path fill="none" stroke="black" d="M278,-84.95C278,-108.56 278,-146.8 278,-146.8 278,-146.8 4026.3,-146.8 4026.3,-146.8"/>
<polygon fill="black" stroke="black" points="4026.3,-150.3 4036.3,-146.8 4026.3,-143.3 4026.3,-150.3"/>
</g>
<!-- UserProfileComponent -->
<g id="node45" class="node">
<title>UserProfileComponent</title>
<polygon fill="#ffffb3" stroke="black" points="169.87,-84.8 24.13,-84.8 24.13,-48.8 169.87,-48.8 169.87,-84.8"/>
<text text-anchor="middle" x="97" y="-62.6" font-family="Times,serif" font-size="14.00">UserProfileComponent</text>
</g>
<!-- UserProfileComponent&#45;&gt;AppModule -->
<g id="edge45" class="edge">
<title>UserProfileComponent&#45;&gt;AppModule</title>
<path fill="none" stroke="black" d="M97,-85C97,-109.16 97,-148.8 97,-148.8 97,-148.8 4026.32,-148.8 4026.32,-148.8"/>
<polygon fill="black" stroke="black" points="4026.32,-152.3 4036.32,-148.8 4026.32,-145.3 4026.32,-152.3"/>
</g>
<!-- AppComponent  -->
<g id="node48" class="node">
<title>AppComponent </title>
<polygon fill="#80b1d3" stroke="black" points="4132.44,-214.8 4023.56,-214.8 4023.56,-178.8 4132.44,-178.8 4132.44,-214.8"/>
<text text-anchor="middle" x="4078" y="-192.6" font-family="Times,serif" font-size="14.00">AppComponent </text>
</g>
<!-- AppModule&#45;&gt;AppComponent  -->
<g id="edge47" class="edge">
<title>AppModule&#45;&gt;AppComponent </title>
<path fill="none" stroke="black" stroke-dasharray="1,5" d="M4078,-149.91C4078,-149.91 4078,-168.79 4078,-168.79"/>
<polygon fill="black" stroke="black" points="4074.5,-168.79 4078,-178.79 4081.5,-168.79 4074.5,-168.79"/>
</g>
<!-- AppRoutingModule -->
<g id="node47" class="node">
<title>AppRoutingModule</title>
<polygon fill="#8dd3c7" stroke="black" points="7549.28,-84.8 7546.28,-88.8 7525.28,-88.8 7522.28,-84.8 7420.72,-84.8 7420.72,-48.8 7549.28,-48.8 7549.28,-84.8"/>
<text text-anchor="middle" x="7485" y="-62.6" font-family="Times,serif" font-size="14.00">AppRoutingModule</text>
</g>
<!-- AppRoutingModule&#45;&gt;AppModule -->
<g id="edge46" class="edge">
<title>AppRoutingModule&#45;&gt;AppModule</title>
<path fill="none" stroke="black" d="M7485,-85.12C7485,-108.46 7485,-145.8 7485,-145.8 7485,-145.8 4129.85,-145.8 4129.85,-145.8"/>
<polygon fill="black" stroke="black" points="4129.85,-142.3 4119.85,-145.8 4129.85,-149.3 4129.85,-142.3"/>
</g>
<!-- BasicAuthInterceptor -->
<g id="node49" class="node">
<title>BasicAuthInterceptor</title>
<ellipse fill="#fdb462" stroke="black" cx="7833" cy="-66.8" rx="94.33" ry="18"/>
<text text-anchor="middle" x="7833" y="-62.6" font-family="Times,serif" font-size="14.00">BasicAuthInterceptor</text>
</g>
<!-- BasicAuthInterceptor&#45;&gt;AppModule -->
<g id="edge48" class="edge">
<title>BasicAuthInterceptor&#45;&gt;AppModule</title>
<path fill="none" stroke="black" d="M7833,-85C7833,-109.16 7833,-148.8 7833,-148.8 7833,-148.8 4129.85,-148.8 4129.85,-148.8"/>
<polygon fill="black" stroke="black" points="4129.85,-145.3 4119.85,-148.8 4129.85,-152.3 4129.85,-145.3"/>
</g>
<!-- ErrorInterceptor -->
<g id="node50" class="node">
<title>ErrorInterceptor</title>
<ellipse fill="#fdb462" stroke="black" cx="7647" cy="-66.8" rx="73.54" ry="18"/>
<text text-anchor="middle" x="7647" y="-62.6" font-family="Times,serif" font-size="14.00">ErrorInterceptor</text>
</g>
<!-- ErrorInterceptor&#45;&gt;AppModule -->
<g id="edge49" class="edge">
<title>ErrorInterceptor&#45;&gt;AppModule</title>
<path fill="none" stroke="black" d="M7647,-84.95C7647,-108.56 7647,-146.8 7647,-146.8 7647,-146.8 4129.94,-146.8 4129.94,-146.8"/>
<polygon fill="black" stroke="black" points="4129.94,-143.3 4119.94,-146.8 4129.94,-150.3 4129.94,-143.3"/>
</g>
</g>
</svg>
